<?xml version="1.0" standalone="no"?>
<!DOCTYPE svg PUBLIC "-//W3C//DTD SVG 20010904//EN"
 "http://www.w3.org/TR/2001/REC-SVG-20010904/DTD/svg10.dtd">
<svg version="1.0" xmlns="http://www.w3.org/2000/svg"
 width="279.000000pt" height="181.000000pt" viewBox="0 0 279.000000 181.000000"
 preserveAspectRatio="xMidYMid meet">

<g transform="translate(0.000000,181.000000) scale(0.100000,-0.100000)"
fill="#000000" stroke="none">
<path d="M1280 1511 c0 -4 -30 -18 -67 -31 -95 -32 -101 -36 -113 -80 -6 -21
-22 -73 -35 -115 -39 -119 -49 -248 -30 -395 9 -67 20 -133 26 -146 5 -13 14
-36 19 -50 9 -22 13 -24 26 -13 14 11 15 8 9 -27 l-7 -39 52 50 c67 65 128
187 142 287 7 47 8 144 2 273 -4 110 -8 221 -8 248 -1 26 -4 47 -8 47 -5 0 -8
-4 -8 -9z m-116 -541 l-7 -35 -9 28 c-7 20 -7 32 1 40 6 6 12 29 13 52 l1 40
4 -45 c3 -24 1 -60 -3 -80z"/>
<path d="M1490 1494 c0 -17 -14 -96 -30 -175 -40 -186 -49 -340 -25 -428 31
-121 67 -172 167 -240 57 -38 68 -39 68 -4 0 15 11 61 24 103 50 157 51 194
16 507 -12 109 -46 178 -92 188 -46 10 -105 42 -117 62 -9 15 -10 13 -11 -13z
m129 -554 l0 -75 -19 40 c-22 48 -24 90 -8 153 l12 47 7 -45 c4 -25 8 -79 8
-120z"/>
<path d="M1356 1458 c-3 -7 -5 -26 -5 -43 0 -16 -6 -171 -12 -342 -12 -296
-11 -314 5 -332 16 -18 20 -18 33 -6 12 12 14 63 12 302 -3 344 -3 382 2 408
5 22 -28 35 -35 13z"/>
<path d="M2030 565 c-7 -9 -11 -18 -8 -20 3 -3 11 1 18 10 7 9 11 18 8 20 -3
3 -11 -1 -18 -10z"/>
<path d="M18 515 c-6 -7 64 -195 73 -195 4 0 17 27 29 60 13 34 25 58 28 55 4
-3 16 -29 27 -56 12 -28 26 -50 31 -51 11 0 78 181 70 190 -11 11 -33 -22 -51
-76 -19 -60 -24 -58 -50 11 -10 26 -22 50 -26 53 -4 2 -18 -23 -30 -56 -12
-33 -24 -58 -28 -55 -3 4 -15 32 -27 63 -19 53 -33 70 -46 57z"/>
<path d="M375 504 c-27 -28 -15 -65 33 -97 45 -30 51 -47 27 -67 -12 -10 -20
-9 -41 5 -29 19 -44 12 -28 -13 13 -21 79 -28 100 -11 8 6 14 27 14 45 0 28
-6 38 -32 54 -70 41 -75 66 -14 64 23 -1 36 3 36 11 0 28 -70 34 -95 9z"/>
<path d="M645 510 c-3 -6 -6 -20 -5 -33 1 -12 2 -48 1 -79 -1 -55 -2 -58 -26
-58 -29 0 -33 -15 -7 -28 24 -13 60 3 67 30 10 39 1 171 -12 175 -6 2 -14 -1
-18 -7z"/>
<path d="M814 507 c-10 -28 1 -190 14 -195 9 -3 12 22 12 102 0 66 -4 106 -10
106 -6 0 -13 -6 -16 -13z"/>
<path d="M1057 513 c-4 -3 -7 -36 -7 -72 l0 -65 -68 67 c-37 37 -71 67 -75 67
-4 0 -7 -45 -7 -101 0 -76 3 -100 13 -96 7 2 13 26 13 63 2 60 13 71 39 41 6
-7 34 -34 63 -62 l52 -49 0 107 c0 98 -5 119 -23 100z"/>
<path d="M1137 514 c-4 -4 -7 -52 -7 -106 0 -79 3 -98 14 -98 11 0 16 14 18
48 l3 47 43 3 c56 4 51 26 -7 30 -37 3 -42 6 -39 25 2 17 11 23 41 27 21 3 39
10 40 15 2 11 -95 20 -106 9z"/>
<path d="M1331 506 c-58 -32 -69 -119 -22 -167 61 -61 174 -24 187 61 12 85
-87 149 -165 106z m94 -22 c23 -9 43 -59 37 -91 -6 -30 -59 -65 -87 -57 -29 8
-65 51 -65 78 0 36 37 76 70 76 16 0 36 -3 45 -6z"/>
<path d="M1548 514 c-5 -4 -8 -52 -8 -106 0 -79 3 -98 14 -98 11 0 16 14 18
48 l3 47 34 -47 c19 -27 40 -48 48 -48 19 0 16 9 -12 46 -30 39 -30 39 -4 65
20 20 20 61 0 82 -12 12 -84 20 -93 11z m67 -54 c0 -18 -6 -26 -22 -28 -18 -3
-23 1 -23 21 0 28 9 39 30 35 9 -2 15 -14 15 -28z"/>
<path d="M2130 505 c0 -9 9 -15 24 -15 20 0 25 -6 30 -37 4 -21 5 -59 4 -85
-2 -49 4 -64 21 -53 7 3 11 42 11 91 0 83 0 84 25 84 16 0 25 6 25 15 0 12
-14 15 -70 15 -56 0 -70 -3 -70 -15z"/>
<path d="M2307 513 c-4 -3 -7 -51 -7 -105 0 -80 3 -98 15 -98 12 0 15 18 15
105 0 96 -5 117 -23 98z"/>
<path d="M2435 508 c-37 -20 -55 -52 -55 -96 0 -60 41 -102 98 -102 50 0 72 8
72 26 0 17 -1 17 -36 4 -79 -30 -141 72 -79 130 20 19 32 22 70 18 32 -4 45
-2 45 7 0 24 -79 33 -115 13z"/>
<path d="M2621 422 c-25 -53 -46 -100 -48 -104 -2 -5 3 -8 12 -8 8 0 21 11 27
25 10 22 18 25 59 25 42 0 48 -3 53 -25 6 -23 36 -37 36 -16 0 10 -88 201 -92
201 -2 0 -23 -44 -47 -98z m69 -19 c0 -13 -31 -18 -43 -7 -3 3 -1 17 6 31 10
23 12 24 24 7 7 -10 13 -24 13 -31z"/>
<path d="M1721 473 c-22 -86 -34 -153 -28 -159 12 -13 25 8 31 51 4 24 11 47
16 50 5 3 22 -20 38 -52 l29 -57 31 59 c32 63 33 63 52 -12 10 -39 14 -43 41
-43 22 0 32 6 41 25 10 22 18 25 59 25 42 0 48 -3 53 -25 6 -22 36 -37 36 -17
0 14 -83 192 -90 192 -4 0 -27 -40 -51 -90 -23 -49 -46 -90 -50 -90 -4 0 -15
35 -25 78 -24 112 -27 114 -62 38 -17 -36 -34 -66 -37 -66 -3 0 -20 29 -36 65
-16 36 -31 65 -34 65 -2 0 -9 -17 -14 -37z m323 -45 c9 -34 8 -38 -12 -38 -27
0 -32 9 -20 36 14 30 24 30 32 2z"/>
<path d="M280 325 c0 -8 7 -15 15 -15 8 0 15 7 15 15 0 8 -7 15 -15 15 -8 0
-15 -7 -15 -15z"/>
<path d="M522 328 c6 -18 28 -21 28 -4 0 9 -7 16 -16 16 -9 0 -14 -5 -12 -12z"/>
</g>
</svg>
